<?xml version="1.0" standalone="no"?>
<!DOCTYPE svg PUBLIC "-//W3C//DTD SVG 20010904//EN"
 "http://www.w3.org/TR/2001/REC-SVG-20010904/DTD/svg10.dtd">
<svg version="1.0" xmlns="http://www.w3.org/2000/svg"
 width="460.000000pt" height="460.000000pt" viewBox="0 0 460.000000 460.000000"
 preserveAspectRatio="xMidYMid meet">
<metadata>
Created by potrace 1.14, written by Peter Selinger 2001-2017
</metadata>
<g transform="translate(0.000000,460.000000) scale(0.100000,-0.100000)"
fill="#000000" stroke="none">
<path d="M2115 3446 c-212 -33 -384 -135 -467 -277 -55 -94 -72 -163 -72 -304
0 -185 41 -316 130 -415 l36 -40 -385 0 -384 0 -7 50 c-9 68 -40 146 -82 202
-72 100 -181 152 -340 165 l-84 6 0 -447 0 -446 555 0 555 0 0 -400 0 -400
730 0 730 0 0 400 0 400 555 0 555 0 0 445 0 445 -42 0 c-140 0 -287 -56 -357
-136 -52 -59 -91 -141 -104 -221 l-11 -63 -384 0 -384 0 36 40 c89 98 130 230
130 415 0 114 -3 139 -26 201 -77 218 -254 342 -543 384 -92 13 -241 11 -340
-4z m426 -134 c149 -40 268 -122 318 -220 68 -133 66 -342 -5 -487 -48 -97
-153 -175 -257 -190 l-47 -7 0 -59 0 -59 595 0 595 0 0 48 c0 71 26 179 55
227 32 55 86 100 144 120 88 30 81 56 81 -305 l0 -320 -555 0 -555 0 0 -400 0
-400 -610 0 -610 0 0 400 0 400 -555 0 -555 0 0 320 c0 361 -7 335 81 305 58
-20 112 -65 144 -120 29 -48 55 -156 55 -227 l0 -48 595 0 595 0 0 60 c0 56
-2 60 -23 60 -13 0 -46 7 -73 17 -134 45 -216 144 -249 299 -31 145 -11 291
54 391 71 110 183 174 365 209 101 19 318 12 417 -14z"/>
</g>
</svg>
