<?xml version="1.0" standalone="no"?>
<!DOCTYPE svg PUBLIC "-//W3C//DTD SVG 20010904//EN"
 "http://www.w3.org/TR/2001/REC-SVG-20010904/DTD/svg10.dtd">
<svg version="1.0" xmlns="http://www.w3.org/2000/svg"
 width="460.000000pt" height="460.000000pt" viewBox="0 0 460.000000 460.000000"
 preserveAspectRatio="xMidYMid meet">
<metadata>
Created by potrace 1.14, written by Peter Selinger 2001-2017
</metadata>
<g transform="translate(0.000000,460.000000) scale(0.100000,-0.100000)"
fill="#000000" stroke="none">
<path d="M0 2300 l0 -2300 2300 0 2300 0 0 2300 0 2300 -2300 0 -2300 0 0
-2300z m2445 1149 c184 -22 341 -92 441 -196 178 -186 189 -559 23 -779 l-48
-64 383 0 382 0 12 61 c37 202 171 325 377 349 50 5 98 10 108 10 16 0 17 -28
17 -445 l0 -445 -555 0 -555 0 0 -400 0 -400 -730 0 -730 0 0 400 0 400 -555
0 -555 0 0 445 0 445 23 0 c77 0 198 -24 254 -50 116 -53 199 -168 225 -309
l12 -61 384 0 384 0 -37 43 c-85 99 -128 235 -129 407 0 123 15 193 59 280
120 235 433 355 810 309z"/>
<path d="M2125 3329 c-185 -31 -325 -119 -389 -247 -63 -126 -62 -321 4 -469
42 -94 157 -183 258 -199 l42 -7 0 -58 0 -59 -589 0 -588 0 -6 83 c-11 180
-94 294 -236 326 l-41 9 0 -324 0 -324 555 0 555 0 0 -400 0 -400 610 0 610 0
0 400 0 400 555 0 555 0 0 324 0 324 -41 -9 c-151 -34 -239 -167 -239 -361 l0
-48 -590 0 -590 0 0 59 0 58 42 7 c187 30 308 207 308 451 0 306 -222 477
-615 474 -66 -1 -142 -5 -170 -10z"/>
</g>
</svg>
